#!OML:ASF F:\twosubjects\two\wednesday\Session 1\rory1.ASF
:FULLY-SPECIFIED
:DEGREES
390
root 15.7346 17.2224 -2.07691 415.62 -64.3534 -50.6087
lowerback 12.8911 -0.0574703 -8.19509
upperback 1.56791 -1.22872 0.85364
thorax -5.38769 -0.446676 5.76054
lowerneck 0.125314 -20.8661 -18.2777
upperneck 5.59937 -34.8036 35.0947
head 12.2187 -16.9453 8.88276
rclavicle -2.38542e-015 8.5875e-014
rhumerus 28.7256 -68.5656 -64.3381
rradius 14.1437
rwrist -18.5407
rhand -7.11602 14.7763
rfingers 7.12502
rthumb 18.7592 -14.3392
lclavicle -2.38542e-015 8.5875e-014
lhumerus -37.9212 -3.60853 56.2556
lradius 43.8054
lwrist 11.0856
lhand -27.4491 15.5024
lfingers 7.12502
lthumb -0.85384 45.4805
rfemur -24.8055 9.35598 26.5655
rtibia 34.8577
rfoot -10.9925 -9.68101
rtoes -13.8086
lfemur -34.3899 16.1774 -15.3143
ltibia 85.0453
lfoot -11.161 9.04223
ltoes -13.6769
391
root 15.4098 17.2756 -1.68542 419.828 -65.994 -55.257
lowerback 10.9325 0.120128 -7.36184
upperback 2.2107 -0.721305 0.503585
thorax -3.71658 -0.307797 4.78512
lowerneck 0.0815636 -20.84 -18.5016
upperneck 5.30203 -34.7283 35.3056
head 12.2015 -16.9355 8.98654
rclavicle 2.70347e-014 6.04305e-014
rhumerus 38.5499 -73.0136 -74.6902
rradius 13.35
rwrist -12.489
rhand -5.44627 16.0927
rfingers 7.12502
rthumb 20.3646 -12.8595
lclavicle 2.70347e-014 6.04305e-014
lhumerus -38.0893 -3.51959 55.9147
lradius 43.6046
lwrist 11.2252
lhand -27.8574 15.2854
lfingers 7.12502
lthumb -1.24815 45.2615
rfemur -22.4407 8.73604 25.8613
rtibia 34.2605
rfoot -12.464 -7.70445
rtoes -13.9357
lfemur -33.8827 15.9283 -15.8545
ltibia 84.7951
lfoot -14.2938 9.26386
ltoes -12.1508
392
root 15.2502 17.2537 -1.43392 423.721 -66.3861 -59.032
lowerback 11.1404 0.200998 -6.66928
upperback 2.25948 -0.548589 0.589739
thorax -3.81107 -0.22848 4.46259
lowerneck 0.104905 -20.7823 -18.5471
upperneck 4.69834 -34.5788 35.7505
head 12.0689 -16.9221 9.17758
rclavicle -2.8625e-014 -2.54444e-014
rhumerus 39.0933 -73.3544 -75.3279
rradius 13.342
rwrist -11.2865
rhand -5.51346 15.4739
rfingers 7.12502
rthumb 20.3 -13.4852
lclavicle -2.8625e-014 -2.54444e-014
lhumerus -38.1745 -3.51109 55.6874
lradius 43.5172
lwrist 11.0985
lhand -28.4326 15.6674
lfingers 7.12502
lthumb -1.80374 45.6395
rfemur -21.9022 8.53365 26.0034
rtibia 33.8959
rfoot -12.5666 -7.17331
rtoes -13.7157
lfemur -36.3204 14.803 -15.4925
ltibia 85.3165
lfoot -15.9978 9.39692
ltoes -9.91743
393
root 15.0953 17.239 -1.1843 427.724 -66.9529 -62.8419
lowerback 11.4121 0.318806 -6.25663
upperback 2.28591 -0.365626 0.617338
thorax -3.95993 -0.139698 4.23517
lowerneck 0.0259004 -20.7261 -18.4469
upperneck 4.10038 -34.36 36.0472
head 11.8618 -16.8632 9.3123
rclavicle -2.06736e-014 9.54166e-014
rhumerus 40.2487 -73.6946 -76.3924
rradius 13.1989
rwrist -10.494
rhand -5.36925 14.7855
rfingers 7.12502
rthumb 20.4386 -14.1588
lclavicle -2.06736e-014 9.54166e-014
lhumerus -38.2665 -3.38968 55.3768
lradius 43.4609
lwrist 10.9994
lhand -28.6806 16.3677
lfingers 7.12502
lthumb -2.04324 46.3377
rfemur -21.3894 8.2501 25.9158
rtibia 33.1899
rfoot -12.067 -6.94466
rtoes -17.3797
lfemur -38.8249 13.5472 -15.1749
ltibia 85.3747
lfoot -17.2648 9.5454
ltoes -6.62941
394
root 14.9316 17.2386 -0.940403 431.37 -67.7962 -66.4689
lowerback 11.8012 0.389186 -6.45282
upperback 2.38201 -0.326187 0.655621
thorax -4.07679 -0.119465 4.38513
lowerneck -0.148484 -20.6264 -18.7415
upperneck 3.80933 -34.1133 36.1801
head 11.8117 -16.7595 9.44365
rclavicle 0 -4.13472e-014
rhumerus 44.9727 -74.5537 -80.8887
rradius 12.7215
rwrist -9.2972
rhand -3.38745 15.7909
rfingers 7.12502
rthumb 22.3421 -12.9373
lclavicle 0 -4.13472e-014
lhumerus -38.5503 -2.86577 55.0463
lradius 43.2854
lwrist 10.7234
lhand -28.8134 16.3052
lfingers 7.12502
lthumb -2.17151 46.2739
rfemur -20.8504 8.16614 25.3394
rtibia 32.915
rfoot -11.9312 -6.51611
rtoes -18.6683
lfemur -41.0647 12.1789 -14.9291
ltibia 85.3125
lfoot -18.3363 9.88957
ltoes -6.34345
